<svg width="135" height="135" viewBox="0 0 135 135" fill="none" xmlns="http://www.w3.org/2000/svg">
<g clip-path="url(#clip0_531_14096)">
<path d="M115.734 112.852C141.394 87.176 141.394 45.5467 115.734 19.8705C90.0743 -5.80574 48.4713 -5.80575 22.8114 19.8705C-2.84859 45.5467 -2.84859 87.176 22.8114 112.852C48.4713 138.528 90.0743 138.528 115.734 112.852Z" fill="#EAEAEA"/>
<path d="M6.35794 40.052L4.50139 43.0752L28.3978 57.7684L30.2544 54.7452L6.35794 40.052Z" fill="#F0C82F"/>
<path d="M18.179 19.9636L14.9049 21.3267L22.468 39.5163L25.7421 38.1532L18.179 19.9636Z" fill="#F0C82F"/>
<path fill-rule="evenodd" clip-rule="evenodd" d="M12.3157 94.7995C10.4194 96.06 7.85902 95.5394 6.59939 93.6419C5.33975 91.7444 5.86004 89.1824 7.75633 87.922C9.65263 86.6615 12.213 87.1821 13.4726 89.0796C14.7322 90.9771 14.212 93.5391 12.3157 94.7995Z" fill="#DE5D1D"/>
<path fill-rule="evenodd" clip-rule="evenodd" d="M116.016 111.514L117.933 115.522L120.453 111.85L122.958 108.178L118.529 107.836L114.093 107.5L116.016 111.514Z" fill="#F0C82F"/>
<path d="M5.52385 62.1705L0.00132751 67.4531L5.27588 72.9742L10.7984 67.6916L5.52385 62.1705Z" fill="#BCCAFC"/>
<path fill-rule="evenodd" clip-rule="evenodd" d="M55.3212 119.748C55.6498 120.714 56.1017 121.591 56.2317 122.707C54.5203 123.132 53.7125 123.625 51.9668 123.242C50.7277 122.975 49.6597 122.303 48.6329 121.618C47.339 120.748 46.4148 119.591 44.6007 119.543C42.8892 119.495 41.52 120.789 39.6511 120.652C37.2551 120.481 35.6189 119.002 34.195 117.844C33.4967 117.268 33.0312 116.652 31.6552 116.597C30.7036 116.556 29.752 117.083 28.7251 117.337C26.1374 117.981 23.7345 117.618 22.0025 115.528C22.6187 114.823 23.4128 114.35 24.0768 113.713C27.0068 116.049 29.4919 112.734 33.216 113.672C35.9475 114.357 37.3304 117.371 39.877 117.522C40.8286 117.577 41.8829 116.953 42.6427 116.755C43.5806 116.508 44.6075 116.282 45.6755 116.453C48.4617 116.899 50.2759 119.981 52.9457 120.228C53.8357 120.31 54.3834 119.919 55.3281 119.741L55.3212 119.748Z" fill="#8FBA44"/>
<path fill-rule="evenodd" clip-rule="evenodd" d="M103.489 9.50124C103.489 10.7343 102.489 11.7412 101.25 11.7412C100.011 11.7412 99.0114 10.7411 99.0114 9.50124C99.0114 8.26136 100.011 7.26123 101.25 7.26123C102.489 7.26123 103.489 8.26136 103.489 9.50124Z" fill="#BCCAFC"/>
<path fill-rule="evenodd" clip-rule="evenodd" d="M26.4729 101.554C26.4729 102.787 25.4734 103.794 24.2343 103.794C22.9952 103.794 21.9957 102.794 21.9957 101.554C21.9957 100.314 22.9952 99.314 24.2343 99.314C25.4734 99.314 26.4729 100.314 26.4729 101.554Z" fill="white"/>
<path d="M91.8027 118.734C94.0893 124.488 91.2688 131.023 85.5183 133.311C79.7677 135.599 73.2368 132.777 70.9503 127.023C68.6638 121.275 71.4843 114.733 77.2279 112.446C82.9784 110.158 89.5094 112.98 91.7959 118.734H91.8027ZM73.8735 125.865C75.5165 130.003 80.2196 132.03 84.3545 130.386C88.4894 128.742 90.5157 124.036 88.8727 119.899C87.2297 115.761 82.5266 113.733 78.3917 115.377C74.2568 117.021 72.2305 121.728 73.8735 125.865Z" fill="#DE5D1D"/>
<path d="M62.7088 4.01471L54.8188 6.4707L60.5004 24.7462L68.3904 22.2903L62.7088 4.01471Z" fill="#3B453B"/>
<path d="M52.196 3.48968L63.1649 0.0753029C64.0539 -0.201428 64.9966 0.294255 65.2732 1.18383L66.4485 4.96452C66.7251 5.8541 66.2297 6.79744 65.3407 7.07417L54.3719 10.4885C53.4828 10.7653 52.5401 10.2696 52.2636 9.38001L51.0882 5.59932C50.8116 4.70974 51.307 3.76641 52.196 3.48968Z" fill="#F0C82F"/>
<path d="M44.4242 12.9835L39.8444 15.6636L46.041 26.266L50.6208 23.5859L44.4242 12.9835Z" fill="#3B453B"/>
<path d="M44.0346 10.5292L37.8947 14.1223C37.317 14.4603 37.1226 15.203 37.4604 15.781L38.6078 17.7442C38.9456 18.3222 39.6878 18.5168 40.2655 18.1787L46.4054 14.5857C46.9831 14.2476 47.1775 13.505 46.8397 12.927L45.6923 10.9638C45.3544 10.3857 44.6123 10.1912 44.0346 10.5292Z" fill="#DE5D1D"/>
<path d="M75.5776 15.8227L80.8686 15.4302L79.9611 3.18142L74.6701 3.57393L75.5776 15.8227Z" fill="#3B453B"/>
<path d="M80.685 0.788925L73.5916 1.31514C72.9242 1.36465 72.4233 1.94615 72.4728 2.61395L72.6408 4.88198C72.6903 5.54979 73.2714 6.05101 73.9388 6.0015L81.0322 5.47529C81.6996 5.42578 82.2005 4.84428 82.151 4.17648L81.983 1.90844C81.9335 1.24064 81.3523 0.739416 80.685 0.788925Z" fill="#8FBA44"/>
<path d="M71.8813 117.583C100.083 117.583 122.944 94.7068 122.944 66.4876C122.944 38.2683 100.083 15.3921 71.8813 15.3921C43.6799 15.3921 20.8182 38.2683 20.8182 66.4876C20.8182 94.7068 43.6799 117.583 71.8813 117.583Z" fill="#1E6D1E"/>
<path d="M112.748 98.9942C132.689 79.0402 132.689 46.6883 112.748 26.7343C92.8061 6.78027 60.4747 6.78027 40.5333 26.7343C20.5919 46.6883 20.5919 79.0402 40.5333 98.9942C60.4747 118.948 92.8061 118.948 112.748 98.9942Z" fill="#1CC11C"/>
<path d="M116.047 80.9873C126.048 59.2096 116.513 33.4428 94.749 23.4355C72.9852 13.4281 47.2347 22.9698 37.2336 44.7474C27.2326 66.525 36.7682 92.2918 58.532 102.299C80.2959 112.307 106.046 102.765 116.047 80.9873Z" fill="white"/>
<path d="M88.3867 100.513C88.3867 100.513 88.3182 100.533 88.2977 100.54L87.8048 100.691C87.1955 100.869 86.5451 100.519 86.3671 99.9098C86.1892 99.3001 86.5314 98.663 87.1339 98.4781H87.1476L87.661 98.3205C88.2703 98.1287 88.9412 98.4644 89.126 99.074C89.3177 99.6837 88.9959 100.328 88.3867 100.519V100.513ZM96.944 96.6354C96.4511 96.7861 95.8966 96.5943 95.6159 96.1353C95.2804 95.5873 95.4584 94.8749 95.9992 94.5461L96.4853 94.2447C97.033 93.9021 97.7381 94.0665 98.0804 94.6077C98.4227 95.1489 98.2584 95.8613 97.7176 96.2038L97.2041 96.5258C97.122 96.5737 97.033 96.6148 96.944 96.6422V96.6354ZM78.556 102.232C78.4602 102.259 78.3644 102.28 78.2617 102.28C78.0563 102.287 77.8509 102.294 77.6524 102.3C77.0157 102.314 76.4817 101.807 76.4681 101.17C76.4544 100.533 76.9541 99.9988 77.5976 99.9851L78.159 99.9645C78.7956 99.9371 79.3365 100.43 79.3638 101.074C79.3844 101.609 79.0421 102.074 78.556 102.232ZM104.714 90.3606C104.324 90.4839 103.886 90.3949 103.571 90.0934C103.105 89.655 103.085 88.9221 103.53 88.4563L103.92 88.0384C104.358 87.5657 105.084 87.5383 105.556 87.9699C106.028 88.4014 106.056 89.1344 105.624 89.6071L105.214 90.0523C105.07 90.203 104.899 90.3058 104.721 90.3606H104.714ZM68.609 101.328C68.4242 101.383 68.2188 101.396 68.0134 101.348L67.4179 101.211C66.7949 101.061 66.4184 100.43 66.569 99.8139C66.7196 99.1973 67.3425 98.8137 67.9655 98.9644L68.52 99.0946C69.143 99.2316 69.5332 99.8549 69.3963 100.478C69.3005 100.896 68.9924 101.211 68.609 101.328ZM110.581 82.2842C110.293 82.3733 109.972 82.3527 109.684 82.1952C109.123 81.8869 108.917 81.1882 109.219 80.6265L109.486 80.1196C109.78 79.551 110.485 79.3387 111.046 79.6332C111.615 79.9278 111.827 80.6333 111.532 81.1951L111.245 81.7294C111.094 82.0034 110.848 82.1952 110.574 82.2842H110.581ZM59.2371 97.8821C58.9564 97.9711 58.6415 97.9506 58.354 97.7999L57.8131 97.5122C57.2518 97.2039 57.0464 96.5052 57.3545 95.9435C57.6625 95.3818 58.3677 95.1763 58.9222 95.4845L59.4219 95.7517C59.9901 96.0462 60.2092 96.745 59.908 97.3135C59.7574 97.6012 59.5109 97.793 59.2234 97.8821H59.2371ZM114.175 72.968C113.983 73.0296 113.771 73.0365 113.566 72.9885C112.943 72.8378 112.559 72.2145 112.71 71.5911L112.84 71.0294C112.984 70.406 113.6 70.0156 114.223 70.1526C114.846 70.2964 115.236 70.9129 115.099 71.5363L114.962 72.1254C114.866 72.5364 114.558 72.8447 114.182 72.9611L114.175 72.968ZM51.0768 92.1416C50.6935 92.2581 50.2622 92.1759 49.9473 91.8882L49.5091 91.4772C49.0436 91.0388 49.0231 90.3058 49.4612 89.84C49.8993 89.3742 50.6318 89.3536 51.0974 89.792L51.515 90.1825C51.9873 90.6141 52.0147 91.347 51.5834 91.8197C51.4397 91.9772 51.2617 92.08 51.0768 92.1416ZM115.236 63.0352C115.133 63.0695 115.031 63.0832 114.914 63.0832C114.278 63.0969 113.744 62.59 113.73 61.9529L113.709 61.3843C113.682 60.7473 114.189 60.2061 114.818 60.1787C115.455 60.1513 115.996 60.6514 116.023 61.2884L116.044 61.8981C116.058 62.4256 115.708 62.8777 115.229 63.0284L115.236 63.0352ZM44.6691 84.4831C44.1831 84.6339 43.6354 84.4489 43.3479 83.9968L43.0261 83.4762C42.6975 82.9282 42.8687 82.2157 43.4163 81.8869C43.9572 81.5581 44.676 81.7294 45.0046 82.2774L45.3058 82.7569C45.6481 83.2981 45.4838 84.0105 44.9498 84.353C44.8608 84.4078 44.7718 84.4489 44.676 84.4831H44.6691ZM113.689 53.1641H113.668C113.052 53.3491 112.409 52.9997 112.231 52.3832L112.019 51.6913C111.827 51.0817 112.169 50.4309 112.778 50.2391C113.388 50.0473 114.038 50.3898 114.23 50.9995L114.456 51.7324C114.634 52.3421 114.291 52.9792 113.689 53.1641ZM40.4658 75.3793C39.8565 75.5711 39.2198 75.2628 39.0281 74.6531L38.8502 74.0777C38.6722 73.4681 39.0145 72.831 39.6169 72.646H39.6237C40.2399 72.4611 40.8834 72.8104 41.0682 73.4201L41.212 73.8928C41.4037 74.5024 41.0751 75.1875 40.4658 75.3793ZM109.568 43.8958C109.075 44.0465 108.52 43.8547 108.24 43.3958L107.938 42.9094C107.596 42.3682 107.76 41.6558 108.294 41.3133C108.835 40.9708 109.547 41.1352 109.889 41.6764L110.211 42.1901C110.547 42.7381 110.376 43.4506 109.835 43.7794C109.753 43.8342 109.664 43.8684 109.575 43.8958H109.568ZM38.7543 65.5835C38.6585 65.6109 38.5626 65.6314 38.4531 65.6314C37.8164 65.6588 37.2756 65.1588 37.2482 64.5217L37.2277 63.9189C37.214 63.2818 37.7137 62.7475 38.3504 62.727C38.9871 62.7064 39.521 63.2133 39.5416 63.8504L39.5621 64.4258C39.5827 64.9601 39.2404 65.4259 38.7543 65.5766V65.5835ZM103.27 36.1483C102.886 36.2647 102.448 36.1825 102.133 35.888L101.709 35.4975C101.236 35.0659 101.209 34.333 101.64 33.8603C102.072 33.3877 102.804 33.3603 103.276 33.7918L103.715 34.196C104.18 34.6344 104.207 35.3674 103.769 35.8332C103.626 35.9839 103.454 36.0866 103.27 36.1483ZM39.6443 55.6302C39.4594 55.685 39.2541 55.6987 39.0487 55.6507C38.4257 55.5069 38.0355 54.8904 38.1724 54.267L38.3093 53.6847C38.4531 53.0614 39.0761 52.6778 39.699 52.8216C40.322 52.9655 40.7054 53.5888 40.5616 54.2122L40.4315 54.7739C40.3357 55.1918 40.0276 55.5069 39.6443 55.6233V55.6302ZM95.1846 30.2982C94.8971 30.3873 94.5822 30.3667 94.2946 30.216L93.7812 29.9489C93.213 29.6543 92.9939 28.9556 93.2951 28.387C93.5895 27.8185 94.2946 27.5993 94.856 27.8938L95.3831 28.1747C95.9445 28.4761 96.1567 29.1816 95.8555 29.7434C95.7049 30.0242 95.4584 30.216 95.1777 30.3051L95.1846 30.2982ZM43.0809 46.2523C42.8002 46.3413 42.4853 46.3208 42.2046 46.1769C41.6364 45.8824 41.4173 45.1837 41.7117 44.6151L41.9992 44.0739C42.3073 43.5122 43.0056 43.3067 43.5669 43.6081C44.1283 43.9164 44.3337 44.6151 44.0325 45.1768L43.7655 45.6769C43.6149 45.9646 43.3684 46.1632 43.0809 46.2454V46.2523ZM85.8605 26.7293C85.6689 26.7909 85.4566 26.7978 85.2513 26.7498L84.6968 26.6197C84.0738 26.4827 83.6767 25.8593 83.8205 25.2359C83.9574 24.6126 84.5735 24.2153 85.2034 24.3591L85.7989 24.4961C86.4219 24.6468 86.8053 25.2702 86.6547 25.8936C86.5588 26.3046 86.2508 26.6128 85.8742 26.7293H85.8605ZM48.8109 38.0732C48.4275 38.1896 47.9962 38.1074 47.6813 37.8197C47.2089 37.3882 47.1815 36.6552 47.6128 36.1825L48.0236 35.7441C48.4617 35.2783 49.1942 35.2578 49.6597 35.6962C50.1253 36.1346 50.1458 36.8675 49.7077 37.3334L49.3174 37.7512C49.1737 37.9088 48.9957 38.0115 48.8109 38.0732ZM75.9272 25.7018C75.8246 25.736 75.7219 25.7497 75.6123 25.7566L75.0441 25.7771C74.4075 25.8045 73.8666 25.3113 73.8393 24.6674C73.8119 24.0303 74.3116 23.4891 74.9483 23.4617L75.5576 23.4412C76.1942 23.4275 76.7282 23.9276 76.7419 24.5715C76.7556 25.0989 76.4133 25.5579 75.9272 25.7086V25.7018ZM56.4577 31.6614C55.9716 31.8121 55.4239 31.6272 55.1364 31.175C54.7941 30.6339 54.9516 29.9215 55.4924 29.579L56.0127 29.257C56.5535 28.9282 57.2723 29.0926 57.6009 29.6406C57.9364 30.1886 57.7584 30.901 57.2176 31.2298L56.7315 31.5313C56.6425 31.5861 56.5467 31.6272 56.4508 31.6614H56.4577ZM66.0761 27.2841H66.0624L65.5079 27.4554C64.8986 27.6472 64.2482 27.3047 64.0565 26.695C63.8649 26.0854 64.2072 25.4346 64.8164 25.2428L65.3915 25.0647C66.0076 24.8797 66.6511 25.2291 66.8291 25.8388C67.014 26.4484 66.6717 27.0855 66.0624 27.2773L66.0761 27.2841Z" fill="#222221"/>
<path d="M78.3438 64.145L69.2115 33.6617C69.0129 33.0041 68.3215 32.6274 67.6574 32.826C67.0002 33.0247 66.6237 33.7165 66.8223 34.381L75.9546 64.8643C76.1189 65.4055 76.6118 65.7548 77.1526 65.7548C77.269 65.7548 77.3922 65.7411 77.5086 65.7C78.1658 65.5014 78.5423 64.8095 78.3438 64.145Z" fill="#DE5D1D"/>
<path d="M86.7847 31.1889C86.7231 31.1683 86.6615 31.1546 86.5999 31.1409C86.2987 31.0861 85.9769 31.093 85.6826 31.1683C84.9569 31.3533 84.375 31.915 84.1696 32.6411L74.9141 64.8712C74.5923 65.9946 75.2427 67.1729 76.3654 67.4948C76.5571 67.5496 76.7556 67.577 76.9473 67.577C77.3033 67.577 77.6524 67.488 77.9741 67.3099C78.4739 67.0359 78.8299 66.5838 78.9873 66.0426L88.2429 33.8125C88.5647 32.6891 87.9143 31.5108 86.7916 31.1889H86.7847Z" fill="#BCCAFC"/>
<path d="M81.4244 63.1725C80.6919 60.8092 78.1795 59.4871 75.8177 60.2269C73.4559 60.9599 72.1346 63.4739 72.874 65.8372C73.6065 68.2005 76.1189 69.5226 78.4807 68.7828C80.8425 68.0498 82.1638 65.5358 81.4244 63.1725Z" fill="#F0C82F"/>
</g>
<defs>
<clipPath id="clip0_531_14096">
<rect width="135" height="134.106" fill="white"/>
</clipPath>
</defs>
</svg>
